<svg width="20" height="18" viewBox="0 0 20 18" fill="none" xmlns="http://www.w3.org/2000/svg">
<path d="M10 1.52765C12.3558 -0.583106 15.9787 -0.506535 18.2426 1.75736C20.5858 4.1005 20.5858 7.8995 18.2426 10.2426L11.4142 17.0711C10.6332 17.8521 9.36683 17.8521 8.58579 17.0711L1.75736 10.2426C-0.585787 7.8995 -0.585787 4.1005 1.75736 1.75736C4.02125 -0.506535 7.64417 -0.583106 10 1.52765ZM11.1716 3.17157L10.7071 3.63604C10.3166 4.02656 9.68342 4.02656 9.29289 3.63604L8.82843 3.17157C7.26633 1.60948 4.73367 1.60948 3.17157 3.17157C1.60947 4.73367 1.60947 7.26633 3.17157 8.82843L10 15.6569L16.8284 8.82843C18.3905 7.26633 18.3905 4.73367 16.8284 3.17157C15.2663 1.60948 12.7337 1.60948 11.1716 3.17157Z" fill="#4F4F4F"/>
</svg>
