<svg width="172" height="106" viewBox="0 0 172 106" fill="none" xmlns="http://www.w3.org/2000/svg">
<g clip-path="url(#clip0_2_1429)">
<path d="M84.6134 84.2428C109.93 84.2428 130.453 70.1711 130.453 52.8128C130.453 35.4545 109.93 21.3828 84.6134 21.3828C59.2967 21.3828 38.7734 35.4545 38.7734 52.8128C38.7734 70.1711 59.2967 84.2428 84.6134 84.2428Z" fill="#71C900"/>
<path d="M41.1103 28.3628C38.3803 26.3328 36.9703 25.3628 34.0703 23.5028C34.8503 22.9328 35.2503 22.6528 36.0503 22.1128C37.2103 22.9628 37.7803 23.3928 38.9103 24.2728C39.7003 24.8928 40.4403 25.5028 41.1703 26.2228C41.1803 26.2128 41.1903 26.2128 41.2003 26.2028C40.8603 25.2728 40.5903 24.3128 40.3603 23.3728C40.0203 21.9628 39.8703 21.2528 39.5703 19.8228C40.3603 19.3328 40.7603 19.0928 41.5603 18.6328C42.0503 22.0628 42.3503 23.7528 43.0603 27.1028C42.2703 27.5828 41.8803 27.8428 41.1103 28.3628Z" fill="black"/>
<path d="M51.9275 18.5231C50.7175 19.0631 50.1175 19.3431 48.9175 19.9231C49.2575 20.6031 49.4175 20.9531 49.7575 21.6331C51.0575 20.9931 51.7175 20.6831 53.0375 20.1131C53.2775 20.6631 53.3975 20.9331 53.6375 21.4731C51.6175 22.3531 50.6275 22.8331 48.6575 23.8631C47.1675 21.0231 46.4275 19.5931 44.9375 16.7531C47.0275 15.6531 48.0975 15.1531 50.2375 14.2031C50.4775 14.7431 50.5975 15.0231 50.8375 15.5631C49.5075 16.1531 48.8375 16.4531 47.5275 17.1031C47.8175 17.7031 47.9675 18.0031 48.2575 18.6031C49.4775 18.0031 50.0875 17.7231 51.3175 17.1731C51.5675 17.7131 51.6875 17.9831 51.9275 18.5231Z" fill="black"/>
<path d="M63.9069 17.432C63.3869 17.772 62.3769 18.342 61.2969 18.682C59.8169 19.152 58.6269 19.182 57.6369 18.792C56.6569 18.412 55.8569 17.602 55.4469 16.502C54.5169 14.012 56.0869 11.742 59.0269 10.812C60.1869 10.442 61.1469 10.382 61.6369 10.442C61.6269 11.052 61.6169 11.352 61.6169 11.962C61.0769 11.922 60.4269 11.952 59.4569 12.252C57.7969 12.782 56.8369 14.032 57.4169 15.672C57.9769 17.232 59.3569 17.762 60.8969 17.272C61.3269 17.132 61.6569 16.982 61.7869 16.872C61.5869 16.232 61.4969 15.912 61.2969 15.272C60.7769 15.432 60.5069 15.512 59.9869 15.682C59.8169 15.142 59.7269 14.872 59.5469 14.332C60.8269 13.922 61.4769 13.722 62.7669 13.362C63.2269 14.982 63.4569 15.802 63.9069 17.432Z" fill="black"/>
<path d="M69.4525 14.3734C69.3725 15.2334 69.3325 15.6534 69.2625 16.5134C68.4825 16.6734 68.0925 16.7634 67.3125 16.9434C67.5925 13.5834 67.7925 11.8934 68.2825 8.52344C69.3725 8.30344 69.9125 8.20344 71.0125 8.02344C72.6825 11.0034 73.4625 12.5034 74.9325 15.5434C74.1125 15.6534 73.7025 15.7134 72.8925 15.8434C72.5025 15.0734 72.3025 14.6834 71.9025 13.9234C70.9225 14.0834 70.4325 14.1734 69.4525 14.3734ZM71.3925 12.6334C71.0625 12.0034 70.8925 11.6834 70.5525 11.0534C70.3125 10.6134 70.0425 10.0534 69.8225 9.61344C69.8125 9.61344 69.8025 9.61344 69.7925 9.62344C69.7425 10.1134 69.7225 10.7334 69.6625 11.2234C69.5825 11.9334 69.5425 12.2834 69.4625 12.9934C70.2425 12.8334 70.6225 12.7634 71.3925 12.6334Z" fill="black"/>
<path d="M78.5494 15.1537C78.2694 11.9537 78.1394 10.3537 77.8594 7.16375C78.8394 7.08375 79.3294 7.04375 80.3194 6.98375C81.1594 8.11375 81.5694 8.68375 82.3594 9.83375C82.9194 10.6637 83.4694 11.6437 83.8794 12.5437C83.8994 12.5437 83.8994 12.5437 83.9194 12.5437C83.7694 11.4837 83.7094 10.4037 83.6894 9.20375C83.6694 8.26375 83.6594 7.79375 83.6394 6.86375C84.4094 6.84375 84.7994 6.84375 85.5694 6.84375C85.5594 10.0538 85.5594 11.6537 85.5494 14.8637C84.7494 14.8637 84.3494 14.8637 83.5394 14.8837C82.7894 13.6637 82.3994 13.0538 81.5894 11.8538C81.0294 11.0238 80.3894 10.0237 79.8794 9.11375C79.8594 9.12375 79.8594 9.12375 79.8394 9.12375C79.9594 10.1737 80.0594 11.3037 80.1394 12.6137C80.1994 13.5737 80.2294 14.0638 80.2894 15.0238C79.5994 15.0738 79.2494 15.0937 78.5494 15.1537Z" fill="black"/>
<path d="M95.6787 7.45312C97.9487 7.72313 99.0787 7.89313 101.319 8.31313C101.209 8.89313 101.159 9.19313 101.049 9.77313C99.6588 9.51313 98.9587 9.40313 97.5687 9.20312C97.4687 9.93313 97.4087 10.2931 97.3087 11.0131C98.5887 11.1931 99.2187 11.3031 100.489 11.5331C100.379 12.1131 100.329 12.4031 100.219 12.9831C98.9688 12.7531 98.3487 12.6531 97.0887 12.4731C96.9087 13.7531 96.8087 14.3931 96.6287 15.6631C95.8687 15.5531 95.4887 15.5031 94.7188 15.4131C95.1087 12.2331 95.2987 10.6431 95.6787 7.45312Z" fill="black"/>
<path d="M112.569 15.3427C111.709 17.8327 109.589 18.7627 107.189 18.0727C104.759 17.3727 103.729 15.3127 104.249 13.0927C104.799 10.7527 106.959 9.38266 109.629 10.1527C112.409 10.9527 113.289 13.2427 112.569 15.3427ZM106.329 13.5627C105.929 15.0827 106.429 16.3527 107.689 16.7127C108.959 17.0827 110.039 16.2027 110.509 14.7227C110.949 13.3527 110.559 11.9227 109.179 11.5227C107.819 11.1227 106.729 12.0527 106.329 13.5627Z" fill="black"/>
<path d="M123.881 20.22C122.661 22.55 120.401 23.15 118.111 22.1C115.781 21.04 115.051 18.85 115.891 16.72C116.771 14.48 119.131 13.45 121.691 14.62C124.351 15.84 124.911 18.25 123.881 20.22ZM117.901 17.5C117.291 18.95 117.591 20.27 118.801 20.83C120.021 21.39 121.221 20.69 121.911 19.29C122.541 18 122.361 16.52 121.031 15.91C119.741 15.31 118.511 16.07 117.901 17.5Z" fill="black"/>
<path d="M129.384 18.8906C130.124 19.2006 131.054 19.6906 131.994 20.2806C133.544 21.2606 134.384 22.1806 134.814 23.1906C135.274 24.2706 135.204 25.4406 134.374 26.5906C133.474 27.8306 132.324 28.3206 131.254 28.3506C130.084 28.3906 128.724 27.8706 127.274 26.9606C126.404 26.4106 125.804 25.9906 125.414 25.6906C126.994 22.9706 127.794 21.6106 129.384 18.8906ZM127.804 25.5906C127.934 25.7106 128.164 25.8606 128.384 25.9906C129.924 26.9706 131.414 26.9106 132.504 25.3406C133.444 23.9806 133.004 22.5806 131.434 21.5806C131.024 21.3206 130.744 21.1906 130.574 21.1206C129.464 22.9106 128.914 23.8006 127.804 25.5906Z" fill="black"/>
<path d="M50.25 89.0478C51.8 86.3278 52.58 84.9678 54.13 82.2578C54.9 82.6978 55.29 82.9078 56.07 83.3178C56.15 84.6578 56.21 85.3278 56.35 86.6778C56.45 87.6478 56.51 88.7478 56.5 89.7178C56.51 89.7278 56.52 89.7278 56.54 89.7378C56.85 88.7478 57.26 87.7678 57.76 86.7078C58.15 85.8778 58.34 85.4678 58.73 84.6378C59.35 84.9278 59.67 85.0678 60.3 85.3478C59.06 88.2178 58.43 89.6578 57.19 92.5278C56.38 92.1778 55.98 91.9978 55.17 91.6178C54.96 90.1878 54.88 89.4678 54.74 88.0478C54.64 87.0578 54.6 85.8978 54.66 84.8978C54.64 84.8978 54.64 84.8978 54.62 84.8878C54.18 85.8278 53.68 86.8078 53.08 87.9378C52.64 88.7678 52.41 89.1878 51.97 90.0178C51.27 89.6278 50.93 89.4378 50.25 89.0478Z" fill="black"/>
<path d="M64.0691 92.9753C63.5791 93.6553 63.3291 94.0053 62.8291 94.6753C62.0091 94.3953 61.5991 94.2553 60.7891 93.9553C62.9391 91.4153 63.9491 90.1053 65.8691 87.4453C66.7991 87.7453 67.2591 87.8853 68.1991 88.1553C68.3191 91.4453 68.4491 93.0953 68.8291 96.4053C67.9591 96.1953 67.5291 96.0853 66.6691 95.8453C66.6091 94.9953 66.5791 94.5753 66.5291 93.7253C65.5391 93.4453 65.0491 93.2953 64.0691 92.9753ZM66.6091 92.3753C66.5791 91.6753 66.5691 91.3253 66.5591 90.6353C66.5491 90.1453 66.5691 89.5453 66.5891 89.0653C66.5791 89.0653 66.5791 89.0653 66.5691 89.0553C66.3191 89.4653 66.0191 89.9953 65.7491 90.3853C65.3591 90.9553 65.1591 91.2453 64.7591 91.8153C65.4891 92.0453 65.8691 92.1553 66.6091 92.3753Z" fill="black"/>
<path d="M74.3797 91.0809C73.4997 90.9309 73.0597 90.8409 72.1797 90.6609C72.2997 90.0809 72.3597 89.7909 72.4797 89.2109C74.9297 89.7209 76.1697 89.9109 78.6497 90.1809C78.5897 90.7709 78.5597 91.0709 78.4897 91.6609C77.5897 91.5609 77.1397 91.5109 76.2397 91.3809C75.8797 93.8909 75.6997 95.1409 75.3497 97.6509C74.5297 97.5309 74.1197 97.4709 73.2997 97.3309C73.7397 94.8309 73.9497 93.5809 74.3797 91.0809Z" fill="black"/>
<path d="M83.8623 90.5153C83.8223 92.3153 83.8023 93.2153 83.7523 95.0153C83.7223 96.3653 84.2923 97.0653 85.3223 97.0653C86.3823 97.0653 86.9523 96.3953 86.9223 95.0153C86.8823 93.2153 86.8623 92.3153 86.8123 90.5153C87.5423 90.4953 87.9123 90.4853 88.6423 90.4453C88.7323 92.1953 88.7823 93.0753 88.8723 94.8253C89.0023 97.2353 87.6423 98.4853 85.2523 98.4853C82.9523 98.4853 81.6523 97.2953 81.7823 94.8053C81.8723 93.0653 81.9223 92.1953 82.0123 90.4453C82.7623 90.4853 83.1223 90.4953 83.8623 90.5153Z" fill="black"/>
<path d="M92.6406 90.2217C93.2206 90.0617 94.0806 89.8817 95.0406 89.7317C96.2306 89.5417 97.0906 89.5617 97.7506 89.8717C98.3006 90.1417 98.6806 90.6217 98.8306 91.3217C99.0406 92.3017 98.4206 93.1317 97.7306 93.5017C97.7306 93.5117 97.7306 93.5217 97.7406 93.5317C98.3806 93.6317 98.8106 94.0817 99.1706 94.7417C99.6206 95.5517 100.111 96.4917 100.351 96.7517C99.5206 96.9317 99.1106 97.0117 98.2706 97.1717C98.0806 96.9817 97.7306 96.3817 97.3306 95.4917C96.9206 94.5917 96.5106 94.3817 95.7206 94.4917C95.4806 94.5317 95.3706 94.5417 95.1306 94.5817C95.3106 95.8017 95.4006 96.4117 95.5706 97.6217C94.7606 97.7417 94.3506 97.7917 93.5406 97.8917C93.1806 94.8217 93.0006 93.2817 92.6406 90.2217ZM94.9406 93.3117C95.2406 93.2717 95.3906 93.2417 95.7006 93.2017C96.6506 93.0517 97.1406 92.5117 97.0206 91.8417C96.8906 91.1317 96.3106 90.8717 95.4706 91.0017C95.0206 91.0717 94.7706 91.1417 94.6406 91.1817C94.7506 92.0317 94.8106 92.4617 94.9406 93.3117Z" fill="black"/>
<path d="M105.678 93.2787C105.668 94.1187 105.668 94.5387 105.648 95.3887C104.818 95.6387 104.408 95.7488 103.578 95.9788C103.858 92.6688 103.938 91.0188 103.968 87.7288C104.898 87.4388 105.358 87.2887 106.278 86.9688C108.278 89.5787 109.338 90.8587 111.568 93.3387C110.728 93.6687 110.308 93.8287 109.458 94.1387C108.918 93.4787 108.648 93.1487 108.118 92.4887C107.148 92.8087 106.658 92.9687 105.678 93.2787ZM107.408 91.3187C106.988 90.7587 106.778 90.4887 106.358 89.9187C106.068 89.5287 105.738 89.0288 105.478 88.6188C105.468 88.6188 105.468 88.6187 105.458 88.6287C105.488 89.1087 105.548 89.7088 105.558 90.1888C105.568 90.8788 105.568 91.2287 105.568 91.9287C106.308 91.6887 106.668 91.5687 107.408 91.3187Z" fill="black"/>
<path d="M111.93 84.6481C112.61 84.3281 112.95 84.1681 113.63 83.8281C114.77 86.0881 115.34 87.2281 116.48 89.4881C117.78 88.8381 118.43 88.4881 119.7 87.7581C119.99 88.2781 120.14 88.5281 120.44 89.0481C118.39 90.2181 117.35 90.7481 115.24 91.7381C113.92 88.8981 113.26 87.4881 111.93 84.6481Z" fill="black"/>
<path d="M84.6109 105.62C44.2709 105.62 11.4609 81.93 11.4609 52.81C11.4609 23.69 44.2709 0 84.6109 0C124.951 0 157.761 23.69 157.761 52.81C157.761 81.93 124.951 105.62 84.6109 105.62ZM84.6109 2C45.3809 2 13.4609 24.79 13.4609 52.81C13.4609 80.83 45.3809 103.62 84.6109 103.62C123.841 103.62 155.761 80.83 155.761 52.81C155.761 24.79 123.851 2 84.6109 2Z" fill="#71C900"/>
<path d="M169.71 45.3894C170.7 43.9094 170.7 41.8394 169.7 39.7594C168.62 37.5194 166.75 36.1294 164.83 36.1294C164.31 36.1294 163.8 36.2294 163.32 36.4194C163.04 36.5294 162.74 36.7094 162.43 36.9494C161.18 34.6394 158.2 33.0994 156.87 32.6994L156.42 32.5694H156C155.09 32.5694 154.15 32.5694 149.89 37.1894C148.76 34.5994 145.73 33.4194 143.57 33.4194C141.92 33.4194 140.97 34.0894 140.47 34.6494C139.89 35.2894 139.6 36.1394 139.65 36.9994C139.52 37.7094 138.74 39.3194 137.77 41.1294C137.61 40.5194 137.33 39.9194 136.91 39.3294C135.39 37.1594 132.85 36.1894 131.02 36.1894C129.71 36.1894 128.61 36.6694 127.91 37.5494C127.35 38.2494 127.19 38.9194 127.05 39.4594C126.94 39.9094 126.75 40.6694 126.06 42.1494C125.89 41.6394 125.64 41.1294 125.29 40.6294C123.88 38.6194 121.59 37.6394 119.8 37.5194C119.92 36.7994 119.83 36.0494 119.41 35.2694C118.42 33.4194 115.61 31.3594 113.16 31.3594C111.85 31.3594 110.7 31.8994 109.92 32.8794L109.67 33.1894C108.41 34.7594 106.87 36.6794 107.24 38.8394C106.33 39.0094 105.56 39.4494 105.02 40.1194C104.47 40.8194 104.3 41.4894 104.17 42.0294C104.04 42.5494 103.81 43.4894 102.8 45.4894C101.75 44.2494 100.39 43.5294 98.9996 43.5294C98.4796 43.5294 97.9696 43.6294 97.4896 43.8194C97.2096 43.9294 96.9096 44.1094 96.5996 44.3494C95.3496 42.0394 92.3696 40.4994 91.0396 40.0994L90.5896 39.9994H90.1696C89.2596 39.9994 88.3196 39.9994 84.0596 44.6194C82.9296 42.0294 79.8996 40.8494 77.7396 40.8494C76.0896 40.8494 75.1396 41.5194 74.6396 42.0794C74.0696 42.7194 73.7696 43.5694 73.8196 44.4294C73.7296 44.9194 73.3396 45.8194 72.7796 46.9294C72.5396 46.4094 72.2496 45.9594 71.9296 45.5494C70.4896 43.7194 67.8796 42.5894 65.1296 42.5894C62.0796 42.5894 59.1596 43.9794 56.8196 46.5194C56.4696 45.7794 56.0896 45.0894 55.7496 44.4794C54.7796 42.7294 52.8396 41.8394 49.9996 41.8394C49.9396 41.8394 49.8796 41.8394 49.8296 41.8394C49.4896 40.7294 48.9096 39.7294 48.1096 38.8594C46.4496 37.0694 43.9096 36.0494 41.1396 36.0494C40.1496 36.0494 39.1696 36.1794 38.2296 36.4394C35.7596 37.1094 33.1596 38.8194 31.4896 41.0494C29.0596 39.4694 25.9996 38.6094 22.6296 38.6094C18.6896 38.6094 14.5396 39.7994 10.6396 42.0394C4.81958 45.3894 1.20958 49.8994 0.749576 54.4194C0.449576 57.2694 1.44958 59.8794 3.54958 61.7494C4.30958 62.4294 5.05958 62.9594 5.80958 63.3494C3.36958 67.5694 1.36958 71.6794 0.589576 74.6094C-0.620425 79.2094 0.0795755 83.8194 2.47958 86.9194C3.97958 88.8694 6.03958 89.9894 8.11958 89.9894C8.70958 89.9894 9.27958 89.8994 9.83958 89.7294C10.6896 89.5194 11.3996 88.9494 11.7796 88.1694C12.4996 86.6994 11.7396 85.4594 11.4496 84.9994C11.0896 84.4194 10.0696 82.7594 10.9396 78.5294C11.9096 78.8594 12.9896 79.0294 14.1596 79.0294C18.1696 79.0294 22.7996 77.1494 27.0096 73.9294C27.7796 75.1094 29.0096 75.7994 30.3896 75.7994C30.5496 75.7994 30.7096 75.7894 30.8696 75.7694C32.2796 75.6094 33.7996 74.5794 35.3396 73.0094C35.4496 73.3194 35.5896 73.6194 35.7496 73.8994C36.7096 75.5794 38.4196 76.4994 40.5496 76.4994C41.3096 76.4994 42.1096 76.3894 42.9896 76.1594C45.4396 75.5194 48.0196 73.7394 50.6896 70.8394C52.2696 73.2194 54.6796 74.5994 57.3596 74.5994C59.9096 74.5994 62.4996 73.4194 65.1096 71.0694C66.5696 72.7294 68.6696 73.4794 70.1696 73.4794C72.2496 73.4794 73.4196 72.1794 73.6796 70.8494C73.8796 69.9394 74.5996 68.5494 75.6096 66.9294C75.7396 67.7594 76.0196 68.5294 76.4396 69.2294C77.4696 70.9494 79.2196 71.9294 81.2296 71.9294C81.8096 71.9294 82.4096 71.8394 82.9996 71.6794C83.9996 71.3994 85.2796 70.7194 87.3996 68.4294C88.4896 70.0294 90.1296 70.9694 92.0296 70.9694C94.2796 70.9694 96.5396 69.6394 98.7996 67.0194C100.07 68.5194 101.85 69.3694 103.79 69.3694C105.48 69.3694 107.83 68.7294 110.43 66.1694C111.66 67.4094 113.28 68.1094 115.04 68.1094C116.79 68.1094 119.22 67.4294 121.9 64.6994C123.15 66.0394 124.84 66.7994 126.67 66.7994C128.03 66.7994 129.93 66.3794 132.08 64.6894C133.31 65.5894 134.76 66.0594 136 66.0594C138.07 66.0594 139.24 64.7594 139.51 63.4294C139.71 62.5094 140.43 61.1294 141.44 59.5094C141.58 60.3394 141.85 61.1094 142.27 61.8094C143.3 63.5294 145.05 64.5094 147.06 64.5094C147.64 64.5094 148.24 64.4294 148.83 64.2594C149.83 63.9794 151.11 63.2994 153.23 61.0094C154.32 62.6194 155.96 63.5594 157.86 63.5594C162.21 63.5594 166.45 58.8394 170.81 49.1294L171.57 47.4394L169.71 45.3894ZM16.4696 69.7194C16.7796 68.9094 17.3896 67.8894 18.4596 66.9494C18.9396 66.5294 19.2896 66.2794 19.5196 66.1494C19.8896 66.3794 20.4496 66.6494 21.1596 66.6794C19.3896 68.1894 17.6796 69.1694 16.4696 69.7194ZM28.8696 52.5394C28.1796 56.9194 26.5496 60.3294 24.6296 62.9394C24.9796 60.9194 24.7096 59.1894 23.8396 57.7894C23.6196 57.4394 23.3696 57.1094 23.0796 56.8194C23.7796 55.9094 24.3196 55.2394 24.6196 54.8594C26.0696 53.0394 25.9296 50.6494 25.2396 48.7894C26.5396 48.9194 27.6096 49.3694 28.2296 50.0894C28.7896 50.7094 28.9996 51.5594 28.8696 52.5394ZM38.1596 55.4794C38.2096 54.5894 38.1796 53.7394 38.1096 52.9394C38.5296 52.9894 38.9396 53.0194 39.3496 53.0394C38.9696 53.8694 38.5696 54.6894 38.1596 55.4794Z" fill="white"/>
<path d="M113.078 41.4299C113.938 40.3499 117.588 37.8899 116.908 36.6299C116.228 35.3699 113.228 33.2999 112.138 34.6699C111.048 36.0399 109.738 37.5399 110.078 38.5599C110.488 39.8099 112.218 42.4999 113.078 41.4299Z" fill="#392517"/>
<path d="M167.676 47.3685C167.676 47.3685 162.576 56.5085 160.826 56.2285C159.066 55.9485 164.606 46.5285 167.286 43.9085C168.456 42.4385 166.236 38.3185 164.366 39.0685C163.076 39.5785 158.656 45.7885 156.266 51.1585C153.976 53.9485 151.016 56.9285 150.776 56.4185C149.806 53.8485 158.976 41.8785 160.006 39.9185C161.036 37.9585 157.346 35.8185 156.056 35.4285C154.766 35.0385 141.046 52.1085 141.046 52.1085C141.046 52.1085 147.796 41.8385 147.486 39.0785C147.176 36.3185 142.336 35.6185 142.486 36.9085C142.806 39.7285 133.586 52.9585 132.296 57.7985C132.286 57.8385 132.286 57.8785 132.276 57.9185C131.556 58.7585 130.766 59.5585 129.896 60.2485C124.896 64.1985 127.976 55.9185 131.376 50.4485C134.776 44.9785 135.866 42.8085 134.596 40.9885C133.316 39.1685 130.676 38.6685 130.126 39.3485C129.576 40.0385 130.216 40.9085 126.856 46.7485C124.756 50.3985 123.056 53.7885 122.586 56.8085C121.896 57.6585 121.066 58.5185 120.056 59.3185C115.056 63.2685 116.356 57.2285 119.746 51.7585C123.146 46.2885 124.236 44.1185 122.966 42.2985C121.686 40.4785 119.046 39.9785 118.496 40.6585C117.946 41.3485 118.586 42.2185 115.226 48.0585C113.036 51.8585 111.286 55.3885 110.916 58.4985C109.846 60.0585 108.546 61.6085 107.016 62.8185C102.016 66.7685 105.096 58.4885 108.496 53.0185C111.896 47.5485 112.986 45.3785 111.716 43.5585C110.436 41.7385 107.796 41.2385 107.246 41.9185C106.696 42.6085 107.336 43.4785 103.976 49.3185C102.226 52.3685 100.756 55.2385 100.046 57.8585C98.4062 60.4885 96.0863 63.8385 95.0062 63.6685C93.2462 63.3885 98.7862 53.9685 101.466 51.3485C102.636 49.8785 100.416 45.7585 98.5462 46.5085C97.2562 47.0185 92.8362 53.2285 90.4462 58.5985C88.1562 61.3885 85.1962 64.3685 84.9562 63.8585C83.9862 61.2885 93.1562 49.3185 94.1862 47.3585C95.2162 45.3985 91.5262 43.2585 90.2362 42.8685C88.9462 42.4785 75.2262 59.5485 75.2262 59.5485C75.2262 59.5485 81.9762 49.2685 81.6662 46.5185C81.3562 43.7685 76.5162 43.0585 76.6662 44.3485C76.8562 46.0485 73.5862 51.5285 70.6662 56.6785C68.6962 59.8185 62.9663 68.4585 59.3963 68.6685C55.9263 68.8685 56.5363 64.9085 58.4963 60.5385C58.5262 63.9185 63.2763 64.3185 62.5563 63.7485C61.8363 63.1785 66.2062 57.1085 68.2662 54.5285C70.3262 51.9485 71.3162 49.3685 69.7162 47.3485C68.1162 45.3285 62.6463 43.7485 58.3263 49.1685C55.1163 53.1985 52.1263 58.9385 51.8063 63.7585C48.7463 67.6885 44.4162 71.6085 43.7962 70.5085C41.7463 66.9885 53.8062 52.4785 54.7062 51.3485C55.6063 50.2185 54.4062 47.8985 53.2863 45.8885C52.5963 44.6385 50.3463 44.4885 47.3563 44.9285C47.7163 39.9885 42.8563 38.1485 38.9762 39.2085C35.6763 40.0985 32.5762 43.1985 32.5462 45.9185C29.0162 40.9985 20.5462 39.6485 12.0562 44.5285C3.54625 49.3685 1.51625 56.1385 5.41625 59.6185C9.31625 63.0985 11.0862 60.0785 10.2662 59.4285C8.76625 58.2285 8.88625 52.4485 17.0662 47.9985C25.2462 43.5485 32.4962 46.6985 31.6662 52.9785C29.3762 67.5085 17.8462 72.7885 15.1962 73.0885C12.5562 73.3885 12.6062 68.2985 16.5862 64.8185C20.5662 61.3385 20.8162 64.5885 21.5462 63.6785C22.8962 59.1985 20.5362 58.0385 18.8362 57.7585C20.5862 55.3685 21.9762 53.6385 22.4062 53.0885C24.0062 51.0885 21.4262 46.5385 20.1162 47.8285C16.1662 51.7285 5.25625 67.9685 3.31625 75.3185C1.38625 82.6685 5.56625 88.1785 9.09625 86.9785C9.97625 86.8785 6.11625 85.0585 8.58625 76.1385C8.79625 75.3885 9.06625 74.6085 9.36625 73.8085C11.7462 78.3985 21.6162 76.2285 29.0962 68.1785C36.0962 60.6485 36.2862 53.7285 34.1562 48.7685C36.6462 50.4885 40.7962 50.2685 43.5863 50.2085C40.7663 57.9185 33.3462 70.7685 29.9962 68.0985C28.9162 67.2385 28.0762 73.2185 30.5462 72.9385C34.2862 72.5185 42.1263 58.2985 45.6362 50.2585C45.9362 50.2985 46.1663 50.3685 46.3063 50.4685C47.4363 51.3685 44.6662 54.9385 41.0062 61.2385C37.3462 67.5385 35.6162 75.1385 42.2863 73.4085C45.6963 72.5185 49.1763 68.6085 51.7762 64.9785C51.8162 66.1685 52.0462 67.2885 52.5163 68.2785C54.4762 72.4785 59.6263 74.2885 66.4263 65.4185C65.3662 70.0785 70.7363 71.3585 70.9062 70.2785C72.1062 64.6085 86.1263 48.6485 86.2262 49.4685C86.3262 50.2885 81.8762 57.3285 79.4262 61.9485C76.9762 66.5685 79.1262 69.8285 82.2362 68.9485C84.0162 68.4385 87.0762 64.5985 89.3762 61.3885C88.9662 62.7285 88.7962 63.9185 88.9662 64.7985C89.7262 68.8285 93.8262 70.8785 99.6062 60.9085C99.6062 62.1385 99.8462 63.2885 100.426 64.3585C102.076 67.4385 106.366 67.9785 110.976 61.0185C111.106 61.7385 111.326 62.4285 111.676 63.0885C113.356 66.2385 117.806 66.7385 122.536 59.2785C122.636 60.1585 122.876 60.9885 123.306 61.7785C124.766 64.5185 128.326 65.2485 132.336 60.4885C133.226 63.0785 136.606 63.7085 136.746 62.8585C137.946 57.1885 151.966 41.2285 152.066 42.0485C152.156 42.8685 147.716 49.9085 145.266 54.5285C142.816 59.1485 144.966 62.4085 148.076 61.5285C149.856 61.0185 152.916 57.1785 155.216 53.9685C154.806 55.3085 154.636 56.4985 154.806 57.3785C155.686 62.0385 161.016 64.0485 168.246 47.9585L167.676 47.3685ZM67.3262 49.9285C68.2363 53.3285 62.1363 55.5985 59.5763 58.2785C62.4663 52.8385 66.7362 47.7185 67.3262 49.9285ZM37.6763 41.9885C39.8463 40.8785 44.7363 40.7185 44.7163 45.3785C43.5863 45.6185 42.3963 45.9085 41.1763 46.2385C35.3763 47.7785 35.2262 43.2485 37.6763 41.9885Z" fill="#392517"/>
</g>
<defs>
<clipPath id="clip0_2_1429">
<rect width="171.56" height="105.62" fill="white"/>
</clipPath>
</defs>
</svg>
