<svg width="121" height="77" viewBox="0 0 121 77" fill="none" xmlns="http://www.w3.org/2000/svg">
<g clip-path="url(#clip0_2_1462)">
<path d="M54.6016 25.5467C54.6016 25.5467 75.5716 38.8767 92.3716 34.4367C109.182 29.9967 111.042 5.5667 92.1316 4.9467C73.2216 4.3367 76.7516 20.2967 54.6016 25.5467Z" fill="#71C900"/>
<path d="M69.3828 29.2037C69.3828 29.2037 110.643 21.9937 120.153 3.06368C121.463 -0.37632 117.173 -0.73632 115.443 1.07368C113.713 2.88368 112.613 16.0737 82.3528 23.8437L69.3828 29.2037Z" fill="#71C900"/>
<path d="M66.3862 49.0564C66.3862 49.0564 71.5862 33.5364 58.0662 32.5664C47.7262 31.8264 32.7362 46.1764 38.1662 66.8964C43.6062 87.6164 73.3362 67.6764 74.1762 49.8464L72.2362 49.7864C72.2362 49.7864 64.2962 67.8764 55.3762 70.2164C50.0362 71.6164 50.3762 51.8164 58.1662 42.1264C66.3562 31.9464 64.7162 44.9364 61.1262 50.7364C59.6462 53.1264 66.3862 49.0564 66.3862 49.0564Z" fill="#392517"/>
<path d="M83.8545 50.9992C83.8545 50.9992 76.2045 54.5992 79.6745 62.8492C83.1445 71.0992 92.3145 59.3192 90.9745 47.9292C89.6245 36.5392 80.1245 39.1392 81.3845 45.6492C82.6445 52.1592 90.4045 53.1192 95.5145 48.5692L95.8845 51.6892C95.8845 51.6892 83.7345 57.3892 79.2845 46.7892C79.1845 46.5492 79.0945 46.3092 79.0045 46.0592C74.8145 34.4792 92.5745 30.4792 96.8745 44.4692C100.684 56.8692 92.0945 79.5192 74.9845 73.6192C57.8745 67.7192 65.6545 45.1392 79.5345 42.1792L80.5145 46.7892L83.8545 50.9992Z" fill="#392517"/>
<path d="M46.2732 37.0366C46.2732 37.0366 49.4332 64.4666 34.1632 69.1066C18.8932 73.7466 14.3932 50.4966 17.9032 42.7066C21.4032 34.9166 28.6932 29.4066 32.0032 35.1066C33.9732 38.4766 25.9332 40.9466 26.2732 27.4266C26.6132 13.9066 37.8532 7.17661 44.0732 13.7466C50.3032 20.3166 43.1832 27.3766 40.1232 22.9266C37.0632 18.4766 47.5232 10.7466 54.3332 20.9566C55.5832 21.7866 60.0332 16.9266 57.0932 11.5866C54.1432 6.24661 43.6332 7.18661 37.4032 16.5366C31.1732 25.8766 51.5832 31.7866 46.6932 14.5366C43.6332 7.19661 32.7932 0.676613 20.4132 9.66661C8.03324 18.6466 19.2132 39.1266 26.5832 40.5466C33.9532 41.9666 36.9632 37.4666 32.5932 32.2566C28.2232 27.0466 15.0732 18.3866 3.43324 38.3566C-8.19676 58.3266 11.7332 84.9666 33.0832 73.7966C49.1532 65.3866 48.0532 36.5166 48.0532 36.5166L46.2732 37.0366Z" fill="#392517"/>
<path d="M72.2031 26.175L74.0631 17.375H72.7231L72.8931 16.725C73.0831 16.725 73.3031 16.715 73.5431 16.695C73.7831 16.675 74.0431 16.625 74.3431 16.555C74.6331 16.475 74.9631 16.365 75.3131 16.225C75.6631 16.085 76.0531 15.875 76.4831 15.625L74.2331 26.175H72.2031Z" fill="white"/>
<path d="M79.5822 26.3156C79.0322 26.3156 78.5722 26.2256 78.2022 26.0356C77.8322 25.8556 77.5422 25.6056 77.3322 25.2856C77.1122 24.9656 76.9622 24.5956 76.8722 24.1656C76.7822 23.7356 76.7422 23.2756 76.7422 22.7856C76.7422 22.1356 76.7922 21.5056 76.8922 20.8956C76.9922 20.2856 77.1422 19.7056 77.3422 19.1656C77.5422 18.6256 77.7822 18.1356 78.0622 17.6856C78.3422 17.2356 78.6622 16.8556 79.0222 16.5356C79.3822 16.2156 79.7622 15.9656 80.1922 15.7856C80.6122 15.6056 81.0622 15.5156 81.5422 15.5156C82.0022 15.5156 82.4122 15.5956 82.7522 15.7556C83.0922 15.9156 83.3722 16.1456 83.6022 16.4456C83.8222 16.7456 83.9922 17.0956 84.1022 17.5156C84.2122 17.9356 84.2622 18.3956 84.2622 18.9056C84.2622 19.2456 84.2422 19.6156 84.2022 20.0156C84.1622 20.4056 84.1022 20.8056 84.0222 21.2256C83.9422 21.6356 83.8322 22.0456 83.7022 22.4656C83.5722 22.8756 83.4122 23.2756 83.2322 23.6456C83.0522 24.0256 82.8322 24.3756 82.6022 24.6956C82.3622 25.0256 82.0922 25.3056 81.7922 25.5456C81.4922 25.7856 81.1622 25.9756 80.7922 26.1056C80.4122 26.2556 80.0222 26.3156 79.5822 26.3156ZM81.5222 16.3556C81.2922 16.3556 81.0722 16.4556 80.8622 16.6456C80.6422 16.8356 80.4322 17.0956 80.2422 17.4256C80.0422 17.7556 79.8622 18.1356 79.6922 18.5756C79.5222 19.0156 79.3722 19.4856 79.2522 19.9956C79.1322 20.4956 79.0322 21.0156 78.9622 21.5556C78.8922 22.0956 78.8522 22.6256 78.8522 23.1456C78.8522 23.4156 78.8622 23.6756 78.8922 23.9256C78.9222 24.1756 78.9622 24.4056 79.0322 24.6056C79.1022 24.8056 79.1922 24.9656 79.3122 25.0856C79.4322 25.2056 79.5922 25.2656 79.7822 25.2656C80.0122 25.2656 80.2322 25.1756 80.4522 24.9856C80.6722 24.7956 80.8722 24.5456 81.0622 24.2256C81.2522 23.9056 81.4222 23.5156 81.5822 23.0856C81.7422 22.6456 81.8722 22.1756 81.9922 21.6656C82.1022 21.1556 82.1922 20.6256 82.2522 20.0856C82.3122 19.5356 82.3422 18.9856 82.3422 18.4456C82.3422 18.1656 82.3222 17.9056 82.2922 17.6556C82.2622 17.4056 82.2122 17.1856 82.1422 16.9956C82.0722 16.8056 81.9922 16.6556 81.8922 16.5456C81.7822 16.4156 81.6622 16.3556 81.5222 16.3556Z" fill="white"/>
<path d="M87.4259 26.3156C86.8759 26.3156 86.4159 26.2256 86.0459 26.0356C85.6759 25.8556 85.3859 25.6056 85.1759 25.2856C84.9559 24.9656 84.8059 24.5956 84.7159 24.1656C84.6259 23.7356 84.5859 23.2756 84.5859 22.7856C84.5859 22.1356 84.6359 21.5056 84.7359 20.8956C84.8359 20.2856 84.9859 19.7056 85.1859 19.1656C85.3859 18.6256 85.6259 18.1356 85.9059 17.6856C86.1859 17.2356 86.5059 16.8556 86.8659 16.5356C87.2259 16.2156 87.6059 15.9656 88.0359 15.7856C88.4559 15.6056 88.9059 15.5156 89.3859 15.5156C89.8459 15.5156 90.2559 15.5956 90.5959 15.7556C90.9359 15.9156 91.2159 16.1456 91.4459 16.4456C91.6659 16.7456 91.8359 17.0956 91.9459 17.5156C92.0559 17.9356 92.1059 18.3956 92.1059 18.9056C92.1059 19.2456 92.0859 19.6156 92.0459 20.0156C92.0059 20.4056 91.9459 20.8056 91.8659 21.2256C91.7859 21.6356 91.6759 22.0456 91.5459 22.4656C91.4159 22.8756 91.2559 23.2756 91.0759 23.6456C90.8959 24.0256 90.6859 24.3756 90.4459 24.6956C90.2059 25.0256 89.9359 25.3056 89.6359 25.5456C89.3359 25.7856 89.0059 25.9756 88.6359 26.1056C88.2559 26.2556 87.8559 26.3156 87.4259 26.3156ZM89.3659 16.3556C89.1359 16.3556 88.9159 16.4556 88.7059 16.6456C88.4859 16.8356 88.2759 17.0956 88.0859 17.4256C87.8859 17.7556 87.7059 18.1356 87.5359 18.5756C87.3659 19.0156 87.2159 19.4856 87.0959 19.9956C86.9759 20.4956 86.8759 21.0156 86.8059 21.5556C86.7359 22.0956 86.6959 22.6256 86.6959 23.1456C86.6959 23.4156 86.7059 23.6756 86.7359 23.9256C86.7659 24.1756 86.8059 24.4056 86.8759 24.6056C86.9459 24.8056 87.0359 24.9656 87.1559 25.0856C87.2759 25.2056 87.4359 25.2656 87.6259 25.2656C87.8559 25.2656 88.0759 25.1756 88.2959 24.9856C88.5159 24.7956 88.7159 24.5456 88.9059 24.2256C89.0959 23.9056 89.2659 23.5156 89.4259 23.0856C89.5859 22.6456 89.7159 22.1756 89.8359 21.6656C89.9459 21.1556 90.0359 20.6256 90.0959 20.0856C90.1559 19.5356 90.1859 18.9856 90.1859 18.4456C90.1859 18.1656 90.1659 17.9056 90.1359 17.6556C90.1059 17.4056 90.0559 17.1856 89.9859 16.9956C89.9159 16.8056 89.8359 16.6556 89.7359 16.5456C89.6259 16.4156 89.5059 16.3556 89.3659 16.3556Z" fill="white"/>
<path d="M95.1356 15.4062C95.6856 15.4062 96.0956 15.5863 96.3656 15.9363C96.6356 16.2863 96.7756 16.8163 96.7756 17.5163C96.7756 18.0463 96.6956 18.5463 96.5456 19.0163C96.3956 19.4863 96.1856 19.8963 95.9256 20.2463C95.6656 20.5963 95.3556 20.8763 95.0056 21.0763C94.6556 21.2762 94.2756 21.3763 93.8756 21.3763C92.8056 21.3763 92.2656 20.6763 92.2656 19.2763C92.2656 18.7363 92.3356 18.2263 92.4856 17.7563C92.6356 17.2863 92.8356 16.8763 93.0956 16.5263C93.3556 16.1763 93.6556 15.9063 94.0056 15.7063C94.3556 15.5063 94.7356 15.4062 95.1356 15.4062ZM93.5656 19.6362C93.5656 20.0362 93.6056 20.3363 93.6856 20.5263C93.7656 20.7163 93.8956 20.8062 94.0756 20.8062C94.2556 20.8062 94.4356 20.7063 94.6056 20.5063C94.7756 20.3063 94.9256 20.0263 95.0556 19.6863C95.1856 19.3463 95.2856 18.9462 95.3656 18.4862C95.4456 18.0262 95.4756 17.5562 95.4756 17.0562C95.4756 16.6762 95.4456 16.4063 95.3756 16.2463C95.3156 16.0863 95.2056 16.0063 95.0556 16.0063C94.8756 16.0063 94.6956 16.1163 94.5156 16.3263C94.3356 16.5363 94.1756 16.8162 94.0356 17.1562C93.8956 17.4962 93.7856 17.8862 93.6956 18.3162C93.6156 18.7462 93.5656 19.1862 93.5656 19.6362ZM94.6956 26.1763H93.6856L99.5556 15.5663H100.566L94.6956 26.1763ZM100.386 20.2963C100.936 20.2963 101.346 20.4763 101.616 20.8263C101.886 21.1762 102.026 21.7062 102.026 22.3962C102.026 22.9262 101.946 23.4262 101.796 23.8962C101.646 24.3663 101.436 24.7763 101.176 25.1263C100.916 25.4763 100.606 25.7563 100.256 25.9563C99.9056 26.1563 99.5256 26.2563 99.1256 26.2563C98.0556 26.2563 97.5156 25.5562 97.5156 24.1562C97.5156 23.6163 97.5856 23.1162 97.7356 22.6462C97.8856 22.1762 98.0856 21.7663 98.3456 21.4163C98.6056 21.0663 98.9056 20.7963 99.2556 20.5963C99.6156 20.3963 99.9856 20.2963 100.386 20.2963ZM98.8256 24.5063C98.8256 24.9062 98.8656 25.2063 98.9456 25.3962C99.0256 25.5862 99.1556 25.6763 99.3356 25.6763C99.5156 25.6763 99.6956 25.5763 99.8656 25.3763C100.036 25.1763 100.186 24.8962 100.316 24.5562C100.446 24.2162 100.546 23.8163 100.626 23.3663C100.706 22.9163 100.736 22.4363 100.736 21.9363C100.736 21.5563 100.706 21.2863 100.636 21.1263C100.566 20.9663 100.456 20.8862 100.306 20.8862C100.186 20.8862 100.056 20.9363 99.9356 21.0263C99.8156 21.1263 99.7056 21.2563 99.5956 21.4263C99.4856 21.5963 99.3856 21.7963 99.2856 22.0263C99.1956 22.2563 99.1056 22.5063 99.0456 22.7763C98.9756 23.0463 98.9256 23.3263 98.8856 23.6163C98.8456 23.9163 98.8256 24.2063 98.8256 24.5063Z" fill="white"/>
<path d="M94.5863 49.301C94.5863 49.301 102.856 45.751 100.706 39.521C99.2362 35.641 108.696 35.201 107.076 43.691C105.446 52.181 93.9062 52.401 93.9062 52.401L94.5863 49.301Z" fill="#392517"/>
</g>
<defs>
<clipPath id="clip0_2_1462">
<rect width="120.4" height="76.43" fill="white"/>
</clipPath>
</defs>
</svg>
