<svg width="189" height="143" viewBox="0 0 189 143" fill="none" xmlns="http://www.w3.org/2000/svg">
<g clip-path="url(#clip0_2_1556)">
<path d="M94.1069 134.19L11.2969 71.3803L94.1069 8.57031L176.917 71.3803L94.1069 134.19Z" fill="#71C900"/>
<path d="M94.11 142.76L93.51 142.3L0 71.38L94.11 0L94.71 0.46L188.22 71.38L94.11 142.76ZM3.31 71.38L94.11 140.25L184.91 71.38L94.11 2.51L3.31 71.38Z" fill="#71C900"/>
<path d="M92.9062 56.4481L95.3462 44.8781H93.5862L93.8062 44.0281C94.0562 44.0281 94.3463 44.0181 94.6562 43.9881C94.9662 43.9681 95.3162 43.8981 95.7062 43.7981C96.0962 43.6981 96.5162 43.5581 96.9862 43.3681C97.4462 43.1781 97.9662 42.9181 98.5262 42.5781L95.5762 56.4481H92.9062Z" fill="#392517"/>
<path d="M102.607 56.6353C101.887 56.6353 101.277 56.5153 100.797 56.2753C100.317 56.0353 99.9272 55.7053 99.6472 55.2853C99.3672 54.8653 99.1672 54.3753 99.0472 53.8153C98.9272 53.2553 98.8672 52.6453 98.8672 52.0053C98.8672 51.1553 98.9372 50.3253 99.0672 49.5253C99.2072 48.7153 99.3972 47.9653 99.6572 47.2553C99.9172 46.5453 100.237 45.8953 100.607 45.3053C100.977 44.7153 101.397 44.2153 101.867 43.7853C102.337 43.3653 102.847 43.0353 103.397 42.7953C103.947 42.5553 104.547 42.4453 105.167 42.4453C105.777 42.4453 106.307 42.5553 106.757 42.7653C107.207 42.9753 107.577 43.2853 107.867 43.6753C108.157 44.0653 108.377 44.5353 108.517 45.0853C108.657 45.6353 108.727 46.2453 108.727 46.9153C108.727 47.3653 108.697 47.8553 108.647 48.3653C108.597 48.8853 108.517 49.4053 108.407 49.9453C108.297 50.4853 108.157 51.0253 107.987 51.5753C107.817 52.1153 107.607 52.6353 107.367 53.1353C107.127 53.6253 106.847 54.0953 106.537 54.5153C106.227 54.9453 105.867 55.3153 105.477 55.6253C105.077 55.9353 104.647 56.1853 104.167 56.3653C103.697 56.5453 103.177 56.6353 102.607 56.6353ZM105.147 43.5453C104.847 43.5453 104.557 43.6753 104.277 43.9253C103.987 44.1753 103.717 44.5153 103.457 44.9453C103.197 45.3753 102.957 45.8853 102.737 46.4653C102.517 47.0453 102.317 47.6653 102.157 48.3253C101.997 48.9853 101.867 49.6653 101.777 50.3753C101.687 51.0853 101.637 51.7753 101.637 52.4653C101.637 52.8153 101.657 53.1553 101.687 53.4853C101.717 53.8153 101.777 54.1153 101.867 54.3753C101.957 54.6353 102.077 54.8453 102.237 55.0053C102.397 55.1653 102.597 55.2453 102.857 55.2453C103.157 55.2453 103.457 55.1253 103.737 54.8753C104.027 54.6353 104.297 54.2953 104.547 53.8753C104.797 53.4453 105.027 52.9453 105.237 52.3753C105.447 51.7953 105.627 51.1753 105.767 50.5153C105.917 49.8453 106.027 49.1553 106.107 48.4353C106.187 47.7153 106.227 46.9953 106.227 46.2753C106.227 45.9153 106.207 45.5653 106.167 45.2453C106.127 44.9153 106.057 44.6353 105.977 44.3853C105.887 44.1353 105.777 43.9353 105.647 43.7953C105.497 43.6153 105.337 43.5453 105.147 43.5453Z" fill="#392517"/>
<path d="M112.904 56.6353C112.184 56.6353 111.574 56.5153 111.094 56.2753C110.614 56.0353 110.224 55.7053 109.944 55.2853C109.664 54.8653 109.464 54.3753 109.344 53.8153C109.224 53.2553 109.164 52.6453 109.164 52.0053C109.164 51.1553 109.234 50.3253 109.364 49.5253C109.504 48.7153 109.694 47.9653 109.954 47.2553C110.214 46.5453 110.534 45.8953 110.904 45.3053C111.274 44.7153 111.694 44.2153 112.164 43.7853C112.634 43.3653 113.144 43.0353 113.694 42.7953C114.244 42.5553 114.844 42.4453 115.464 42.4453C116.074 42.4453 116.604 42.5553 117.054 42.7653C117.504 42.9753 117.874 43.2853 118.164 43.6753C118.454 44.0653 118.674 44.5353 118.814 45.0853C118.954 45.6353 119.024 46.2453 119.024 46.9153C119.024 47.3653 118.994 47.8553 118.944 48.3653C118.894 48.8853 118.814 49.4053 118.704 49.9453C118.594 50.4853 118.454 51.0253 118.284 51.5753C118.114 52.1153 117.904 52.6353 117.664 53.1353C117.424 53.6253 117.144 54.0953 116.834 54.5153C116.524 54.9453 116.164 55.3153 115.774 55.6253C115.374 55.9353 114.944 56.1853 114.464 56.3653C113.994 56.5453 113.474 56.6353 112.904 56.6353ZM115.454 43.5453C115.154 43.5453 114.864 43.6753 114.584 43.9253C114.294 44.1753 114.024 44.5153 113.764 44.9453C113.504 45.3753 113.264 45.8853 113.044 46.4653C112.824 47.0453 112.624 47.6653 112.464 48.3253C112.304 48.9853 112.174 49.6653 112.084 50.3753C111.994 51.0853 111.944 51.7753 111.944 52.4653C111.944 52.8153 111.964 53.1553 111.994 53.4853C112.024 53.8153 112.084 54.1153 112.174 54.3753C112.264 54.6353 112.384 54.8453 112.544 55.0053C112.704 55.1653 112.904 55.2453 113.164 55.2453C113.464 55.2453 113.764 55.1253 114.044 54.8753C114.334 54.6353 114.604 54.2953 114.854 53.8753C115.104 53.4453 115.334 52.9453 115.544 52.3753C115.754 51.7953 115.934 51.1753 116.074 50.5153C116.224 49.8453 116.334 49.1553 116.414 48.4353C116.494 47.7153 116.534 46.9953 116.534 46.2753C116.534 45.9153 116.514 45.5653 116.474 45.2453C116.434 44.9153 116.364 44.6353 116.284 44.3853C116.194 44.1353 116.084 43.9353 115.954 43.7953C115.794 43.6153 115.634 43.5453 115.454 43.5453Z" fill="#392517"/>
<path d="M123.036 42.2969C123.756 42.2969 124.296 42.5269 124.656 42.9969C125.016 43.4569 125.196 44.1569 125.196 45.0669C125.196 45.7669 125.096 46.4269 124.896 47.0369C124.696 47.6569 124.426 48.1869 124.076 48.6569C123.736 49.1169 123.326 49.4869 122.866 49.7469C122.406 50.0169 121.906 50.1469 121.386 50.1469C119.976 50.1469 119.266 49.2269 119.266 47.3869C119.266 46.6769 119.366 46.0069 119.556 45.3869C119.746 44.7669 120.016 44.2269 120.356 43.7669C120.696 43.3069 121.096 42.9469 121.556 42.6869C122.026 42.4269 122.516 42.2969 123.036 42.2969ZM120.986 47.8469C120.986 48.3769 121.036 48.7669 121.146 49.0169C121.256 49.2669 121.426 49.3869 121.656 49.3869C121.896 49.3869 122.126 49.2569 122.356 48.9869C122.576 48.7169 122.776 48.3669 122.946 47.9069C123.116 47.4569 123.256 46.9269 123.356 46.3269C123.456 45.7269 123.506 45.0969 123.506 44.4469C123.506 43.9569 123.466 43.5969 123.376 43.3869C123.286 43.1769 123.146 43.0669 122.936 43.0669C122.696 43.0669 122.456 43.2069 122.226 43.4869C121.996 43.7669 121.786 44.1269 121.606 44.5769C121.426 45.0269 121.276 45.5369 121.166 46.1069C121.036 46.6869 120.986 47.2669 120.986 47.8469ZM122.456 56.4469H121.126L128.836 42.5069H130.166L122.456 56.4469ZM129.946 48.7169C130.666 48.7169 131.206 48.9469 131.566 49.4069C131.926 49.8669 132.106 50.5569 132.106 51.4769C132.106 52.1769 132.006 52.8369 131.806 53.4469C131.606 54.0669 131.336 54.5969 130.986 55.0669C130.646 55.5269 130.236 55.8969 129.776 56.1569C129.316 56.4269 128.816 56.5569 128.296 56.5569C126.886 56.5569 126.176 55.6369 126.176 53.7969C126.176 53.0869 126.276 52.4269 126.466 51.8069C126.656 51.1869 126.926 50.6469 127.266 50.1869C127.606 49.7269 128.006 49.3669 128.466 49.1069C128.926 48.8469 129.416 48.7169 129.946 48.7169ZM127.886 54.2569C127.886 54.7869 127.936 55.1769 128.046 55.4269C128.156 55.6769 128.326 55.7969 128.556 55.7969C128.796 55.7969 129.026 55.6669 129.256 55.3969C129.476 55.1269 129.676 54.7769 129.846 54.3169C130.016 53.8669 130.156 53.3369 130.256 52.7469C130.356 52.1569 130.406 51.5269 130.406 50.8669C130.406 50.3769 130.366 50.0169 130.276 49.8069C130.186 49.5969 130.046 49.4869 129.836 49.4869C129.676 49.4869 129.516 49.5469 129.356 49.6769C129.196 49.8069 129.046 49.9769 128.906 50.1969C128.766 50.4169 128.626 50.6769 128.506 50.9869C128.386 51.2869 128.276 51.6169 128.186 51.9769C128.096 52.3269 128.026 52.6969 127.976 53.0869C127.916 53.4769 127.886 53.8669 127.886 54.2569Z" fill="#392517"/>
<path d="M124.601 68.48C124.601 68.48 127.631 64.66 124.841 61.87C122.061 59.09 117.251 60.4 112.721 65.42C108.191 70.44 104.091 78.03 105.871 82.8C107.641 87.57 113.211 87.14 118.411 79.25C118.411 79.25 116.211 84.08 119.141 85.61C122.081 87.14 127.101 85.37 134.931 73.49C134.931 73.49 134.751 71.04 134.441 71.35C134.131 71.66 130.461 79.18 124.471 82.43C122.081 83.65 121.661 81.76 124.841 76.98C128.021 72.21 130.101 70.8 129.431 69.21C128.761 67.62 126.921 63.95 124.721 65.35C122.521 66.76 126.371 67.12 119.151 75.14C111.931 83.16 109.001 84.69 110.401 79.8C111.801 74.91 119.551 65.41 123.921 68.85L124.601 68.48Z" fill="white"/>
<path d="M85.6852 71.1105C85.6852 71.1105 76.3752 83.4705 71.8552 83.2305C63.2252 82.7705 81.5152 60.3505 82.1952 64.9005C82.8752 69.4505 72.2852 70.8505 71.8752 74.7505C71.5052 78.2405 76.3552 79.2105 75.6752 78.5305C75.0052 77.8605 80.2052 72.1205 82.6252 69.7105C85.0452 67.2905 86.3552 64.7505 84.9552 62.4905C83.5452 60.2305 78.1052 57.9605 73.0252 63.0405C67.9452 68.1205 62.9252 76.4405 64.8252 82.0705C66.7252 87.7005 74.0652 90.1505 85.6952 72.8305V71.1105H85.6852Z" fill="white"/>
<path d="M102.54 67.1771C102.54 67.1771 103.03 63.0771 100.03 61.4271C97.0299 59.7771 91.1599 61.8571 85.8299 69.5371C80.5099 77.2171 80.1999 83.3371 83.8099 85.3571C87.4199 87.3771 97.7899 77.0671 98.8599 75.9971C98.8599 75.9971 95.8899 84.5971 91.3299 89.1571C86.7699 93.7171 82.0899 94.2971 82.0899 90.9971C82.0899 87.6971 83.0399 89.2571 83.7999 88.4871C84.5599 87.7271 82.7599 85.6071 80.4999 86.7771C78.2399 87.9371 75.5399 95.7771 82.3999 97.8571C89.2499 99.9371 104.19 86.7771 107 64.9971C107 63.5271 103.33 62.0571 101.37 63.4671C99.4099 64.8771 100.64 67.2571 100.64 67.2571C100.64 67.2571 97.8299 73.2571 92.8099 77.2271C87.7899 81.2071 85.2799 83.2871 84.9199 81.5071C84.5499 79.7371 93.0599 67.1871 96.7299 68.4771C97.6999 68.8271 100.39 71.6371 102.54 67.1771Z" fill="white"/>
<path d="M153.343 78.4763C152.123 83.9863 146.733 87.7763 142.653 86.3663C139.703 85.3463 137.623 83.9763 140.073 79.5563C142.513 75.1463 146.923 68.4263 146.843 67.6263C146.773 66.8263 132.983 81.9863 131.723 87.4463C131.533 88.4963 126.203 87.1063 127.533 82.4563C128.873 77.8063 137.973 65.1963 137.723 62.4663C137.603 61.2163 142.253 61.9863 142.503 64.6563C142.753 67.3263 136.073 77.1263 136.073 77.1263C136.073 77.1263 149.593 60.8963 150.823 61.2963C152.063 61.6963 155.583 63.8263 154.553 65.7063C153.533 67.5763 143.953 82.4563 144.843 84.9563C145.163 85.6663 150.583 83.0463 150.583 76.4663C150.573 74.6763 153.893 75.9663 153.343 78.4763Z" fill="white"/>
<path d="M47.4953 56.9685C47.4953 53.9685 56.8353 52.2785 54.9253 60.9285C54.0653 64.7985 39.4753 79.7985 41.1253 83.8085C42.0753 86.3985 72.1053 61.7485 64.4053 40.5285C63.4653 38.3285 71.5453 39.0585 71.5453 51.6285C71.5453 56.5785 65.7653 84.3485 40.4253 90.5685C38.4253 91.1285 33.3553 84.6385 34.5353 80.9885C35.7053 77.3185 47.4953 63.2585 47.4953 56.9685Z" fill="white"/>
<path d="M34.3527 60.2603C36.2327 54.0903 42.1227 52.8803 52.9527 54.9003C52.9527 54.9003 39.0527 58.9103 39.7327 67.3803C39.7327 70.3203 32.4627 66.4303 34.3527 60.2603Z" fill="white"/>
</g>
<defs>
<clipPath id="clip0_2_1556">
<rect width="188.22" height="142.76" fill="white"/>
</clipPath>
</defs>
</svg>
