<svg width="140" height="114" viewBox="0 0 140 114" fill="none" xmlns="http://www.w3.org/2000/svg">
<g clip-path="url(#clip0_2_1483)">
<path d="M33.2032 62.5707L33.1532 62.0907C33.0732 61.3707 33.0232 60.6707 32.9832 59.9607C32.9332 59.1607 32.9232 58.3707 32.9332 57.5807C32.9332 56.7407 32.9632 55.9007 33.0232 55.0707C33.0832 54.2107 33.1732 53.3607 33.2932 52.5207C33.4032 51.7107 33.5432 50.9107 33.7032 50.1207C33.8832 49.2007 34.1132 48.2907 34.3532 47.3807C34.5732 46.6007 34.8132 45.8307 35.0832 45.0807C35.4232 44.0907 35.8032 43.1107 36.2232 42.1507C36.5432 41.4107 36.9032 40.6807 37.2632 39.9607C37.8132 38.8907 38.4132 37.8507 39.0632 36.8307C39.5232 36.1207 40.0032 35.4207 40.4932 34.7407C41.3532 33.5707 42.2832 32.4507 43.2632 31.3707C43.9032 30.6807 44.5732 29.9907 45.2632 29.3507C46.6832 28.0007 48.2232 26.7607 49.8432 25.6407C50.8832 24.9207 51.9432 24.2507 53.0532 23.6307C57.5332 21.1307 62.5732 19.4707 68.0032 18.8907C73.4332 18.3107 78.7132 18.8607 83.6232 20.3507C84.8432 20.7207 86.0232 21.1507 87.1932 21.6407C89.0132 22.3907 90.7832 23.2807 92.4532 24.2907C93.2632 24.7807 94.0632 25.3007 94.8332 25.8407C96.0232 26.6907 97.1632 27.5907 98.2532 28.5507C98.8832 29.1207 99.5032 29.6907 100.103 30.2907C100.953 31.1407 101.763 32.0307 102.523 32.9707C103.033 33.6007 103.533 34.2407 104.003 34.8907C104.613 35.7407 105.203 36.6107 105.743 37.5107C106.163 38.1907 106.563 38.8907 106.943 39.6007C107.373 40.4307 107.783 41.2707 108.163 42.1307C108.483 42.8707 108.783 43.6207 109.073 44.3907C109.373 45.1907 109.633 46.0007 109.873 46.8307C110.113 47.6307 110.313 48.4407 110.493 49.2707C110.663 50.0407 110.823 50.8107 110.943 51.6107C111.063 52.3107 111.153 53.0207 111.233 53.7307L111.283 54.2107C111.353 54.9607 111.403 55.7107 111.433 56.4507C111.463 57.3807 111.473 58.3107 111.443 59.2207C111.423 59.9407 111.383 60.6407 111.323 61.3507C111.243 62.3407 111.113 63.3307 110.953 64.3107C110.843 64.9907 110.713 65.6507 110.573 66.3207C110.333 67.3807 110.063 68.4307 109.743 69.4607C109.553 70.1007 109.333 70.7407 109.103 71.3707C108.693 72.5107 108.223 73.6307 107.713 74.7107C107.423 75.3107 107.113 75.9107 106.813 76.5007C106.153 77.7307 105.423 78.9207 104.643 80.0607C104.253 80.6407 103.853 81.2007 103.423 81.7507C102.403 83.1007 101.293 84.3707 100.093 85.5807C99.5532 86.1307 98.9932 86.6607 98.4132 87.1807C96.6832 88.7407 94.8032 90.1507 92.8032 91.3807C91.8932 91.9507 90.9532 92.4707 89.9832 92.9607C85.8532 95.0607 81.2732 96.4607 76.3932 96.9807C71.5132 97.5007 66.7332 97.1107 62.2532 95.9307C61.2132 95.6607 60.1832 95.3407 59.1732 94.9807C56.9532 94.2007 54.8232 93.2207 52.7932 92.0607C52.1232 91.6807 51.4632 91.2807 50.8132 90.8507C49.3832 89.9307 48.0332 88.9207 46.7432 87.8207C46.2132 87.3707 45.7032 86.9107 45.1932 86.4307C44.1832 85.4807 43.2232 84.4707 42.3132 83.4107C41.8832 82.9007 41.4632 82.3907 41.0532 81.8607C40.3232 80.9107 39.6332 79.9207 38.9832 78.8907C38.6232 78.3307 38.2732 77.7507 37.9532 77.1607C37.4232 76.2207 36.9332 75.2607 36.4732 74.2707C36.1932 73.6507 35.9232 73.0207 35.6732 72.3807C35.3132 71.4607 34.9832 70.5207 34.6832 69.5707C34.4732 68.9007 34.2832 68.2107 34.1132 67.5207C33.8832 66.6407 33.7032 65.7307 33.5332 64.8207C33.4032 64.0607 33.2932 63.3107 33.2032 62.5707Z" fill="#71C900"/>
<path d="M59.1562 94.9459L92.7863 91.3359C91.8763 91.9059 90.9363 92.4259 89.9663 92.9159L62.2363 95.8859C61.1963 95.6159 60.1762 95.2959 59.1562 94.9459Z" fill="white"/>
<path d="M50.8047 90.8134L100.085 85.5234C99.5447 86.0734 98.9847 86.6034 98.4047 87.1234L52.7847 92.0134C52.1047 91.6434 51.4447 91.2434 50.8047 90.8134Z" fill="white"/>
<path d="M45.1797 86.3956L104.62 80.0156C104.23 80.5956 103.83 81.1556 103.4 81.7056L46.7297 87.7856C46.1997 87.3356 45.6897 86.8756 45.1797 86.3956Z" fill="white"/>
<path d="M41.0469 81.8141L107.707 74.6641C107.417 75.2641 107.107 75.8641 106.807 76.4541L42.3169 83.3741C41.8869 82.8641 41.4569 82.3441 41.0469 81.8141Z" fill="white"/>
<path d="M37.9453 77.1297L109.735 69.4297C109.545 70.0697 109.325 70.7097 109.095 71.3397L38.9753 78.8597C38.6153 78.2897 38.2753 77.7197 37.9453 77.1297Z" fill="white"/>
<path d="M35.6719 72.3434L110.942 64.2734C110.832 64.9534 110.702 65.6134 110.562 66.2834L36.4719 74.2334C36.1919 73.6034 35.9219 72.9834 35.6719 72.3434Z" fill="white"/>
<path d="M34.1094 67.4853L111.429 59.1953C111.409 59.9153 111.369 60.6153 111.309 61.3253L34.6894 69.5453C34.4694 68.8653 34.2894 68.1853 34.1094 67.4853Z" fill="white"/>
<path d="M33.2031 62.5653L111.273 54.1953C111.343 54.9453 111.393 55.6953 111.423 56.4353L33.5331 64.7953C33.4031 64.0553 33.2931 63.3053 33.2031 62.5653Z" fill="white"/>
<path d="M32.9832 59.9578C32.9332 59.1578 32.9232 58.3678 32.9332 57.5778L110.493 49.2578C110.663 50.0278 110.823 50.7978 110.943 51.5978L32.9832 59.9578Z" fill="white"/>
<path d="M33.0234 55.0706C33.0834 54.2106 33.1734 53.3606 33.2934 52.5206L109.063 44.3906C109.363 45.1906 109.623 46.0006 109.863 46.8306L33.0234 55.0706Z" fill="white"/>
<path d="M33.7031 50.1159C33.8831 49.1959 34.1131 48.2859 34.3531 47.3759L106.933 39.5859C107.363 40.4159 107.773 41.2559 108.153 42.1159L33.7031 50.1159Z" fill="white"/>
<path d="M35.0859 45.075C35.4259 44.085 35.8059 43.105 36.2259 42.145L103.996 34.875C104.606 35.725 105.196 36.595 105.736 37.495L35.0859 45.075Z" fill="white"/>
<path d="M37.2656 39.9534C37.8156 38.8834 38.4156 37.8434 39.0656 36.8234L100.096 30.2734C100.946 31.1234 101.756 32.0134 102.516 32.9534L37.2656 39.9534Z" fill="white"/>
<path d="M40.4922 34.7281C41.3522 33.5581 42.2822 32.4381 43.2622 31.3581L94.8222 25.8281C96.0122 26.6781 97.1522 27.5781 98.2422 28.5381L40.4922 34.7281Z" fill="white"/>
<path d="M45.2656 29.3294C46.6856 27.9794 48.2256 26.7394 49.8456 25.6194L87.1956 21.6094C89.0156 22.3594 90.7856 23.2494 92.4556 24.2594L45.2656 29.3294Z" fill="white"/>
<path d="M53.0547 23.6072C57.5347 21.1072 62.5747 19.4472 68.0047 18.8672C73.4347 18.2872 78.7147 18.8372 83.6247 20.3272L53.0547 23.6072Z" fill="white"/>
<path d="M71.7463 113.19C40.5363 113.19 15.1563 87.8 15.1563 56.6C15.1463 25.39 40.5363 0 71.7463 0C102.956 0 128.336 25.39 128.336 56.59C128.336 87.8 102.946 113.19 71.7463 113.19ZM71.7463 2C41.6463 2 17.1563 26.49 17.1563 56.59C17.1563 86.69 41.6463 111.18 71.7463 111.18C101.846 111.18 126.336 86.69 126.336 56.59C126.336 26.49 101.846 2 71.7463 2Z" fill="#71C900"/>
<path d="M37.3363 90.1919C28.5163 81.1519 23.6562 69.2219 23.6562 56.5919C23.6562 38.1619 34.4063 21.1119 51.0563 13.1719L51.4863 14.0719C35.1863 21.8519 24.6562 38.5419 24.6562 56.5919C24.6562 68.9619 29.4163 80.6419 38.0563 89.4919L37.3363 90.1919Z" fill="#71C900"/>
<path d="M106.328 90.0209L105.608 89.3209C114.138 80.4909 118.838 68.8709 118.838 56.5909C118.838 38.7809 108.968 22.6809 93.0781 14.6009L93.5281 13.7109C109.748 21.9709 119.828 38.4009 119.828 56.6009C119.838 69.1309 115.038 81.0009 106.328 90.0209Z" fill="#71C900"/>
<path d="M40.9375 96.8066C41.4675 94.8466 41.7575 93.8766 42.4075 91.9766C42.8175 92.3066 43.0275 92.4666 43.4475 92.7866C43.1675 93.5766 43.0375 93.9766 42.7775 94.7766C42.5975 95.3366 42.4175 95.8766 42.1875 96.4366C42.1975 96.4466 42.1975 96.4466 42.2075 96.4466C42.6575 96.0666 43.1175 95.7166 43.5875 95.3766C44.2775 94.8766 44.6175 94.6266 45.2975 94.1066C45.7175 94.3866 45.9275 94.5266 46.3475 94.8066C44.7375 96.0166 43.8975 96.5966 42.1775 97.6966C41.6775 97.3466 41.4375 97.1666 40.9375 96.8066Z" fill="black"/>
<path d="M50.35 100.153C49.63 99.8134 49.27 99.6334 48.56 99.2534C48.35 99.6534 48.25 99.8434 48.04 100.243C48.85 100.673 49.26 100.873 50.08 101.263C49.93 101.583 49.86 101.733 49.71 102.053C48.41 101.433 47.76 101.103 46.5 100.393C47.42 98.7434 47.89 97.9234 48.81 96.2734C49.92 96.9034 50.49 97.1934 51.63 97.7334C51.48 98.0534 51.4 98.2034 51.25 98.5234C50.51 98.1734 50.15 97.9934 49.42 97.6034C49.24 97.9534 49.15 98.1234 48.96 98.4734C49.66 98.8434 50.01 99.0234 50.72 99.3534C50.57 99.6834 50.5 99.8434 50.35 100.153Z" fill="black"/>
<path d="M57.277 104.708C56.877 104.708 56.127 104.638 55.427 104.408C54.457 104.088 53.837 103.618 53.507 103.048C53.187 102.488 53.157 101.808 53.417 101.168C54.007 99.7181 55.477 99.3481 57.057 99.8781C57.677 100.088 58.127 100.338 58.327 100.518C58.137 100.818 58.037 100.968 57.847 101.268C57.607 101.078 57.297 100.888 56.757 100.708C55.837 100.398 54.967 100.618 54.607 101.578C54.267 102.488 54.737 103.278 55.707 103.608C55.977 103.698 56.207 103.738 56.307 103.728C56.427 103.348 56.487 103.168 56.607 102.788C56.287 102.688 56.137 102.638 55.817 102.528C55.927 102.208 55.977 102.058 56.087 101.738C56.837 101.988 57.207 102.108 57.967 102.328C57.697 103.278 57.557 103.758 57.277 104.708Z" fill="black"/>
<path d="M64.1047 104.414C63.3347 104.294 62.9447 104.224 62.1747 104.074C62.0847 104.514 62.0447 104.734 61.9547 105.174C62.8347 105.344 63.2747 105.424 64.1647 105.554C64.1147 105.904 64.0847 106.074 64.0347 106.424C62.6347 106.214 61.9447 106.084 60.5547 105.774C60.9647 103.934 61.1647 103.004 61.5747 101.164C62.7947 101.434 63.4047 101.544 64.6347 101.734C64.5847 102.084 64.5547 102.254 64.5047 102.604C63.7147 102.484 63.3147 102.414 62.5347 102.264C62.4547 102.644 62.4247 102.844 62.3447 103.224C63.1047 103.374 63.4847 103.434 64.2447 103.554C64.1847 103.894 64.1547 104.064 64.1047 104.414Z" fill="black"/>
<path d="M68.6747 103.078C68.1247 103.038 67.8547 103.018 67.3047 102.968C67.3347 102.608 67.3547 102.428 67.3847 102.078C68.9247 102.218 69.6947 102.258 71.2347 102.278C71.2347 102.638 71.2247 102.818 71.2247 103.178C70.6647 103.168 70.3847 103.168 69.8247 103.138C69.7647 104.668 69.7347 105.428 69.6747 106.958C69.1747 106.938 68.9247 106.928 68.4247 106.888C68.5247 105.368 68.5747 104.608 68.6747 103.078Z" fill="black"/>
<path d="M74.9303 105.69C74.8103 106.18 74.7403 106.43 74.6103 106.92C74.0903 106.95 73.8303 106.96 73.3203 106.98C73.9403 105.07 74.2203 104.11 74.7103 102.19C75.3103 102.15 75.6003 102.13 76.2003 102.07C77.0003 103.89 77.4303 104.79 78.3503 106.58C77.8203 106.65 77.5503 106.68 77.0103 106.73C76.7903 106.27 76.6803 106.03 76.4703 105.56C75.8603 105.63 75.5503 105.65 74.9303 105.69ZM76.2203 104.79C76.0503 104.4 75.9703 104.21 75.8103 103.82C75.6903 103.55 75.5703 103.21 75.4803 102.93C75.4703 102.93 75.4703 102.93 75.4603 102.93C75.4103 103.22 75.3603 103.58 75.2903 103.86C75.2003 104.27 75.1503 104.47 75.0503 104.88C75.5203 104.85 75.7603 104.83 76.2203 104.79Z" fill="black"/>
<path d="M80.625 101.494C80.905 101.384 81.495 101.224 82.045 101.094C82.725 100.944 83.155 100.914 83.555 101.004C83.935 101.094 84.275 101.324 84.385 101.744C84.495 102.154 84.335 102.604 83.805 102.934C83.805 102.944 83.805 102.944 83.805 102.944C84.425 102.934 84.965 103.204 85.135 103.794C85.245 104.204 85.115 104.594 84.845 104.914C84.525 105.284 83.905 105.604 82.825 105.844C82.225 105.974 81.765 106.034 81.475 106.054C81.145 104.224 80.975 103.314 80.625 101.494ZM82.115 103.034C82.265 103.004 82.345 102.984 82.495 102.954C83.105 102.814 83.375 102.514 83.285 102.174C83.195 101.824 82.865 101.714 82.355 101.834C82.115 101.894 81.975 101.934 81.875 101.974C81.975 102.394 82.025 102.604 82.115 103.034ZM82.555 105.084C82.675 105.074 82.825 105.044 83.025 104.994C83.575 104.874 84.005 104.574 83.885 104.094C83.765 103.634 83.255 103.564 82.665 103.704C82.505 103.744 82.425 103.754 82.265 103.794C82.385 104.304 82.445 104.564 82.555 105.084Z" fill="black"/>
<path d="M87.1562 99.6791C87.5962 99.5291 87.8062 99.4491 88.2462 99.2891C88.7862 100.719 89.0562 101.439 89.5862 102.869C90.4062 102.559 90.8162 102.399 91.6262 102.049C91.7662 102.379 91.8362 102.539 91.9762 102.869C90.6862 103.419 90.0262 103.669 88.7062 104.129C88.0862 102.359 87.7763 101.469 87.1562 99.6791Z" fill="black"/>
<path d="M96.8847 98.1678C96.1847 98.5778 95.8347 98.7778 95.1247 99.1578C95.3347 99.5578 95.4447 99.7478 95.6547 100.148C96.4647 99.7178 96.8647 99.4878 97.6547 99.0178C97.8347 99.3178 97.9247 99.4678 98.1047 99.7678C96.8547 100.518 96.2147 100.858 94.9247 101.508C94.0747 99.8178 93.6547 98.9778 92.8047 97.2878C93.9347 96.7178 94.5047 96.4078 95.6047 95.7578C95.7847 96.0578 95.8747 96.2078 96.0547 96.5078C95.3447 96.9278 94.9847 97.1278 94.2647 97.5178C94.4447 97.8678 94.5447 98.0378 94.7247 98.3778C95.4247 98.0078 95.7647 97.8078 96.4447 97.4078C96.6247 97.7178 96.7147 97.8678 96.8847 98.1678Z" fill="black"/>
<path d="M100.414 96.9766C100.784 96.9066 101.304 96.7166 101.744 96.3866C102.224 96.0366 102.354 95.6866 102.164 95.4366C101.984 95.2066 101.664 95.2366 101.014 95.4666C100.104 95.7866 99.3644 95.7666 98.9844 95.1966C98.5344 94.5266 98.8044 93.6066 99.7944 92.8666C100.274 92.5066 100.684 92.3266 101.014 92.2266C101.144 92.5666 101.204 92.7366 101.334 93.0666C101.104 93.1266 100.724 93.2566 100.304 93.5766C99.8844 93.8966 99.7944 94.2066 99.9444 94.4066C100.124 94.6466 100.454 94.5866 101.154 94.3366C102.114 94.0066 102.744 94.0366 103.164 94.5566C103.654 95.1766 103.504 96.1866 102.214 97.1266C101.674 97.5166 101.064 97.7766 100.714 97.8366C100.584 97.5066 100.524 97.3266 100.414 96.9766Z" fill="black"/>
<path d="M54.4766 10.0631C55.7166 9.57313 56.3366 9.35313 57.5966 8.95312C57.7066 9.28313 57.7566 9.45312 57.8666 9.78312C57.0866 10.0331 56.7066 10.1631 55.9366 10.4431C56.0866 10.8431 56.1566 11.0531 56.3066 11.4531C57.0066 11.1931 57.3566 11.0731 58.0666 10.8431C58.1766 11.1731 58.2266 11.3431 58.3366 11.6731C57.6366 11.8931 57.2966 12.0131 56.6066 12.2631C56.8666 12.9731 56.9966 13.3331 57.2566 14.0431C56.8366 14.1931 56.6366 14.2731 56.2166 14.4431C55.5166 12.6931 55.1666 11.8131 54.4766 10.0631Z" fill="black"/>
<path d="M60.7969 8.11229C61.1669 7.96229 61.7169 7.79229 62.3569 7.66229C63.1369 7.50229 63.7069 7.50229 64.1269 7.70229C64.4769 7.87229 64.6969 8.17229 64.7669 8.60229C64.8669 9.19229 64.4769 9.68229 64.0669 9.90229C64.0669 9.91229 64.0669 9.91229 64.0669 9.92229C64.4369 9.99229 64.6869 10.2723 64.8769 10.6723C65.1169 11.1723 65.3669 11.7623 65.4869 11.9223C65.0469 11.9923 64.8269 12.0323 64.3869 12.1123C64.2869 11.9923 64.0969 11.6323 63.8469 11.0923C63.6069 10.5523 63.3569 10.4223 62.9069 10.5123C62.7769 10.5423 62.7069 10.5523 62.5669 10.5823C62.7269 11.3123 62.8069 11.6723 62.9569 12.3923C62.5369 12.4823 62.3169 12.5323 61.8969 12.6323C61.4569 10.8323 61.2369 9.92229 60.7969 8.11229ZM62.3969 9.83229C62.5769 9.79229 62.6669 9.77229 62.8469 9.73229C63.4169 9.61229 63.6969 9.29229 63.6269 8.88229C63.5469 8.45229 63.1769 8.30229 62.6469 8.40229C62.3669 8.46229 62.2069 8.51229 62.1269 8.55229C62.2369 9.06229 62.2869 9.32229 62.3969 9.83229Z" fill="black"/>
<path d="M68.9344 6.79187C69.0044 7.87187 69.0444 8.42187 69.1144 9.50187C69.1744 10.3119 69.5144 10.7019 70.0844 10.6719C70.6644 10.6419 70.9744 10.2419 70.9544 9.41187C70.9244 8.32187 70.9144 7.78188 70.8844 6.69187C71.3644 6.68187 71.6044 6.67188 72.0844 6.67188C72.0844 7.73187 72.0844 8.26187 72.0944 9.32187C72.0944 10.7819 71.3544 11.4619 70.0944 11.5219C68.8844 11.5819 68.1144 11.0019 67.9744 9.50187C67.8744 8.45187 67.8244 7.93187 67.7344 6.88188C68.2044 6.84188 68.4444 6.82187 68.9344 6.79187Z" fill="black"/>
<path d="M76.7097 6.88906C76.5297 8.76906 76.4397 9.70906 76.2697 11.5891C75.8297 11.5491 75.6197 11.5291 75.1797 11.4991C75.3097 9.61906 75.3697 8.66906 75.4997 6.78906C75.9897 6.82906 76.2297 6.84906 76.7097 6.88906Z" fill="black"/>
<path d="M80.9603 8.39563C80.4003 8.29563 80.1303 8.24562 79.5703 8.15562C79.6303 7.80562 79.6503 7.62563 79.7103 7.26562C81.3403 7.52562 82.1503 7.68562 83.7503 8.08562C83.6603 8.43562 83.6203 8.60562 83.5303 8.95562C82.9703 8.81562 82.6903 8.75562 82.1303 8.63562C81.8103 10.1356 81.6503 10.8756 81.3303 12.3756C80.9003 12.2856 80.6903 12.2356 80.2503 12.1556C80.5303 10.6556 80.6803 9.90563 80.9603 8.39563Z" fill="black"/>
<path d="M85.5603 12.3542C85.8103 12.5842 86.2003 12.8642 86.6503 13.0242C87.1403 13.1942 87.4603 13.0942 87.5703 12.8142C87.6703 12.5342 87.5003 12.2942 86.9903 11.9042C86.2803 11.3742 85.8703 10.7942 86.0703 10.1342C86.3103 9.3642 87.2303 8.9942 88.4403 9.4242C89.0203 9.6342 89.4003 9.8942 89.6503 10.1342C89.4203 10.4142 89.3103 10.5542 89.0903 10.8442C88.9203 10.6842 88.6203 10.4242 88.1203 10.2442C87.6303 10.0642 87.3203 10.1842 87.2403 10.4242C87.1403 10.7042 87.3803 10.9342 87.9403 11.3742C88.6903 11.9742 88.9303 12.5442 88.6903 13.1642C88.4003 13.9042 87.5703 14.2742 86.3003 13.8442C85.7703 13.6642 85.2903 13.3642 85.0703 13.1442C85.2703 12.8242 85.3703 12.6642 85.5603 12.3542Z" fill="black"/>
<path d="M138.737 46.2781C137.467 44.2281 134.717 42.8581 131.907 42.8581C130.947 42.8581 129.727 43.0181 128.397 43.5481C128.357 43.3381 128.297 43.1181 128.207 42.8981C127.517 41.1781 125.067 38.6881 122.437 38.6881C121.387 38.6881 120.407 39.0881 119.687 39.8181L119.447 40.0581C118.237 41.2581 116.787 42.7181 116.717 44.5881C115.977 44.7081 115.317 45.0381 114.817 45.5381C114.527 45.8281 114.327 46.1281 114.167 46.4081C112.787 44.6681 110.517 43.6681 109.677 43.4281C109.417 43.3481 109.107 43.3081 108.837 43.3081C107.937 43.3081 107.117 43.3081 103.667 47.0181C102.537 45.1581 100.267 44.0981 98.1668 44.0981C96.5868 44.0981 95.6668 44.7481 95.1868 45.2981C94.6368 45.9181 94.3468 46.7381 94.3868 47.5581C94.2868 48.0381 93.8768 48.9281 93.3368 49.9981C92.8268 49.1881 92.2668 48.5481 91.6768 48.0581C91.4268 46.9681 90.8668 45.9881 90.0268 45.1481C88.7068 43.8281 87.0068 43.1281 85.1068 43.1281C82.3768 43.1281 79.4268 44.6181 76.7068 47.3281C75.6768 45.7481 73.5168 44.7681 71.4568 44.7681C71.3968 44.7681 71.3368 44.7681 71.2768 44.7681C70.9168 44.4381 70.5068 44.1581 70.0768 43.9181C69.1268 43.3981 68.0368 43.1281 66.8468 43.1281C64.3868 43.1281 61.7868 44.2381 59.2968 46.2881C59.0868 45.6781 58.8468 45.1181 58.6468 44.6281C57.7568 42.4981 55.5568 41.8081 53.7968 41.5881C53.5468 40.5281 53.0668 39.5481 52.3568 38.6981C50.8068 36.8381 48.2568 35.7181 45.5268 35.7181C45.0168 35.7181 44.5168 35.7581 44.0168 35.8281C43.1868 35.9581 42.3568 36.1881 41.5468 36.5281C39.4768 33.5381 35.8968 31.8281 31.4168 31.8281C30.8468 31.8281 30.2468 31.8581 29.6468 31.9081C18.5168 32.9081 2.91682 45.5581 0.366816 55.6481C-0.703184 59.8781 0.536816 63.4281 3.85682 65.6381C4.04682 65.7681 4.24682 65.8881 4.44682 66.0081C4.60682 66.4481 4.78682 66.8781 5.01682 67.2781C6.80682 70.5481 9.61682 72.2781 13.1368 72.2781C17.0968 72.2781 22.0068 70.0581 28.3468 65.3681C28.5568 66.2781 28.9668 67.0781 29.5668 67.7381C30.2968 68.5481 31.6668 69.5081 34.0168 69.5081C35.1768 69.5081 36.4968 68.8681 37.8768 67.8281C37.9468 68.0181 38.0268 68.2081 38.1168 68.3881C38.6268 69.3981 39.9368 71.0981 43.0168 71.0981C43.4468 71.0981 43.9168 71.0581 44.3968 70.9981C45.5068 70.8381 46.6768 70.4381 47.8968 69.7881C47.6568 70.7581 47.5668 71.7681 47.6568 72.7481C47.9468 75.9381 49.9868 78.3381 53.2668 79.3281C53.9268 79.5281 54.6268 79.6281 55.3668 79.6281C59.9868 79.6281 66.2668 75.3581 71.0068 67.8081C72.1668 69.1481 73.7568 69.9181 75.5768 69.9181C77.2068 69.9181 78.8668 69.3081 80.4868 68.1581C80.8868 68.6281 81.3968 69.0481 82.0168 69.3681C82.9168 69.8381 83.8968 70.0781 84.9268 70.0781C85.4468 70.0781 85.9768 70.0181 86.5068 69.8981C86.6668 70.1581 86.8468 70.4081 87.0468 70.6481C88.2268 72.0581 90.0868 72.9681 91.7968 72.9681C93.7968 72.9681 94.9568 71.6581 95.2168 70.3881C95.3468 69.7781 95.7368 68.9281 96.3168 67.9281C96.4568 68.3381 96.6268 68.7181 96.8468 69.0881C97.7968 70.6581 99.4568 71.5881 101.297 71.5881C101.847 71.5881 102.407 71.5081 102.957 71.3481C103.867 71.0881 105.027 70.4681 106.897 68.4181C108.037 70.0981 109.857 71.0981 111.917 71.0981C113.587 71.0981 115.957 70.4481 118.737 67.7781C120.597 69.7181 123.467 70.9781 126.407 70.9781C130.297 70.9781 134.737 68.6681 135.527 62.1981C135.697 60.7681 135.397 59.6081 134.627 58.7381C134.567 58.6781 134.507 58.6081 134.447 58.5481C134.437 58.4981 134.427 58.4381 134.417 58.3881C134.747 57.7881 135.437 56.7781 136.447 55.7781C140.817 51.3581 139.767 47.9281 138.737 46.2781ZM24.3368 44.7081C24.0968 47.2381 23.4368 49.3181 22.5268 51.0281C21.8768 49.6581 20.7468 48.5881 19.2268 48.0081C18.9668 47.9081 18.6868 47.8281 18.4068 47.7681C20.1868 46.5181 22.1868 45.3681 24.3568 44.4481C24.3468 44.5381 24.3368 44.6281 24.3368 44.7081ZM34.7468 45.3181C34.4168 45.9781 34.0768 46.6281 33.7368 47.2381C33.4868 46.5681 33.1468 45.8981 32.7168 45.2581C32.0668 44.2881 31.1468 43.3181 30.1268 42.6381C31.5068 42.3481 32.4968 42.2581 33.1768 42.2581C34.5668 42.2581 35.0968 42.5881 35.1768 42.7181C35.3368 42.9681 35.3568 43.8781 34.7468 45.3181ZM40.9768 52.2481C41.2768 51.6881 41.5468 51.1381 41.7968 50.5681C41.9568 50.6081 42.1268 50.6481 42.2868 50.6881C41.8668 51.2281 41.4268 51.7481 40.9768 52.2481Z" fill="white"/>
<path d="M136.328 47.7749C135.158 45.8949 130.638 44.0149 126.428 48.2349C123.108 51.5549 119.838 56.5349 119.358 60.7849C118.118 62.4249 116.518 64.1549 114.608 65.3449C109.958 68.2349 113.388 61.4649 116.818 57.1149C120.248 52.7749 121.388 51.0249 120.478 49.3449C119.568 47.6649 117.358 46.9849 116.818 47.5149C116.288 48.0449 116.738 48.8549 113.318 53.5149C112.068 55.2149 110.948 56.8449 110.088 58.4249C108.128 61.0649 104.708 64.6849 104.458 64.1749C103.608 61.9749 111.428 51.6349 112.298 49.9449C113.168 48.2549 109.988 46.4349 108.878 46.1049C107.768 45.7749 96.0677 60.5149 96.0677 60.5149C96.0677 60.5149 101.818 51.6549 101.538 49.2849C101.258 46.9149 97.0977 46.3349 97.2277 47.4449C97.4677 49.4849 91.9477 57.8949 89.5477 62.9949C88.9777 63.4349 88.3677 63.8449 87.7277 64.1949C85.7477 65.2149 85.3877 63.6349 88.0277 59.6749C90.6677 55.7149 92.3977 54.5449 91.8377 53.2249C91.3877 52.1649 90.3277 50.0149 88.9877 49.7949C89.0677 48.9249 88.8677 47.9749 88.0277 47.1349C85.7177 44.8249 81.7277 45.9149 77.9777 50.0749C74.2177 54.2349 70.8177 60.5349 72.2877 64.4949C73.7577 68.4549 78.3777 68.0949 82.6977 61.5449C82.6977 61.5449 80.8677 65.5549 83.3077 66.8249C84.5577 67.4749 86.2677 67.3949 88.4977 65.8449C87.8177 69.6749 92.2777 70.6949 92.4077 69.7849C93.4177 64.9049 105.378 51.1149 105.458 51.8249C105.538 52.5349 101.768 58.6049 99.6777 62.5849C97.5977 66.5649 99.4577 69.3649 102.128 68.5849C103.818 68.0949 106.858 64.0449 108.858 61.1449C108.298 62.8649 108.198 64.4949 108.808 66.0249C110.008 69.0549 114.158 69.8249 119.338 62.6449C119.388 63.1149 119.468 63.5649 119.618 64.0049C121.188 68.6749 131.558 71.0249 132.678 61.8349C133.048 58.7849 129.408 61.1749 129.598 63.0549C129.748 64.6449 128.418 65.3149 126.248 64.9749C121.578 64.2449 125.218 55.8849 131.208 50.8549C131.208 50.8549 127.098 55.2249 128.928 57.9149C130.758 60.6049 132.078 59.3849 131.518 58.8249C130.958 58.2649 132.408 55.7549 134.408 53.7449C136.408 51.7549 137.498 49.6549 136.328 47.7749ZM83.3077 58.1549C77.3177 64.8049 74.8777 66.0749 76.0477 62.0149C77.1877 58.0549 83.3277 50.4649 86.9977 52.7449C86.6377 53.8349 85.7277 55.4749 83.3077 58.1549Z" fill="#392517"/>
<path d="M70.1541 47.8674C69.8341 47.2974 69.3841 46.7674 68.6941 46.3874C66.2041 45.0174 61.3341 46.7474 56.9141 53.1174C55.5041 55.1474 54.5241 57.0474 53.9341 58.7474C50.9341 62.5074 46.0141 66.9174 45.5441 65.8174C44.1341 62.6174 55.8241 51.3874 56.7041 50.5074C57.5841 49.6274 56.7841 47.5374 56.0141 45.7074C55.5441 44.5774 53.6341 44.2374 51.0441 44.3174C51.8241 40.1274 47.8541 38.0974 44.4341 38.6274C42.9541 38.8574 41.4541 39.5774 40.3041 40.5374C39.2441 36.6774 35.7241 34.1974 29.8841 34.7274C16.3941 35.9474 -4.52588 56.6574 5.42412 63.2574C5.89412 63.5674 6.38412 63.8274 6.86412 64.0474C6.97412 64.6974 7.18412 65.3174 7.50412 65.8974C10.9041 72.0874 18.3241 70.2674 31.4241 59.2974C36.1441 55.3474 39.0141 50.8974 40.1241 46.8674C42.1241 48.0974 45.1241 48.2974 47.2441 48.4874C43.8541 54.3674 35.4441 62.6874 32.8541 60.0974C32.0141 59.2574 28.6041 66.6574 34.0141 66.6574C37.2541 66.6574 45.3141 55.2674 49.0741 48.7374C49.3241 48.7974 49.5141 48.8774 49.6241 48.9874C50.5041 49.8674 47.7941 52.6474 44.0641 57.6674C40.3341 62.6974 38.1241 69.0174 43.9841 68.1774C47.1341 67.7274 50.6841 64.4174 53.2941 61.4474C53.0541 63.7174 53.7341 65.4074 55.2341 66.2474C58.2341 67.9274 66.8341 59.3674 67.7241 58.4774C67.7241 58.4774 65.2641 65.6074 61.4741 69.3974C57.6941 73.1774 53.8041 73.6674 53.8041 70.9174C53.8041 68.1774 54.5941 69.4674 55.2241 68.8374C55.8541 68.2074 54.3641 66.4474 52.4841 67.4174C50.6041 68.3774 48.3741 74.8774 54.0541 76.6074C59.7441 78.3374 72.1341 67.4174 74.4641 49.3374C74.4841 48.1974 71.8341 47.0574 70.1541 47.8674ZM37.3141 46.5074C30.9141 59.5074 20.7341 64.4274 15.9341 66.1074C13.0041 67.1274 10.6241 66.4974 9.84412 64.9274C19.0541 66.1774 29.4441 55.6274 31.0141 51.7874C32.8441 47.3174 27.1541 43.3574 27.1541 44.8974C26.0241 57.1174 16.1441 61.3274 10.3941 61.2574C10.4641 61.1474 10.5241 61.0374 10.5941 60.9174C13.4141 56.8074 16.8441 55.2174 18.5941 56.9574C19.6941 58.0574 21.9741 52.0874 18.2141 50.6574C14.5941 49.2974 8.56412 54.9474 7.09412 60.4874C6.96412 60.3974 6.83412 60.3074 6.73412 60.2074C3.84412 57.3174 13.1341 45.2774 25.1141 41.1174C37.1141 36.9574 39.6541 41.1174 37.3141 46.5074ZM43.0841 40.9074C45.0441 40.1674 49.2341 40.5074 48.7641 44.4774C47.7741 44.5774 46.7341 44.7074 45.6641 44.8674C40.5641 45.6274 40.8641 41.7474 43.0841 40.9074ZM62.7041 59.4874C58.5441 62.7874 56.4541 64.5174 56.1541 63.0374C55.8541 61.5674 62.9041 51.1574 65.9541 52.2174C66.3741 52.3774 67.1741 53.0674 68.0941 53.1974C67.0241 54.9574 65.1941 57.5174 62.7041 59.4874Z" fill="#392517"/>
<path d="M121.846 47.6746C122.686 46.8346 126.036 45.0846 125.576 43.9446C125.116 42.8046 122.756 40.7446 121.696 41.8146C120.636 42.8846 119.376 44.0346 119.566 44.9346C119.796 46.0546 121.006 48.5146 121.846 47.6746Z" fill="#392517"/>
</g>
<defs>
<clipPath id="clip0_2_1483">
<rect width="139.64" height="113.19" fill="white"/>
</clipPath>
</defs>
</svg>
